# xmcd
#
# Track frame offsets: 
#        150
#        13125
#        35484
#        63223
#        72148
#        88423
#        118948
#        134060
#        165373
#        174040
#        188365
#        210415
#        232021
#        254296
#        275421
#
# Disc length: 4570 seconds
#
# Revision: 0
# Processed by: cddbd v1.5.2PL0 Copyright (c) Steve Scherf et al.
# Submitted via: ExactAudioCopyFreeDBPlugin 1.0
#
DISCID=cd11d80f
DTITLE=Various Artist - MOJO - Black Mountain Sides
DYEAR=2018
DGENRE=
TTITLE0=Bert Jansch - Brought With The Rain
TTITLE1=Ryley Walker - On The Banks Of The Old Kishwaukee
TTITLE2=Jake Xerxes Fussell - Have You Ever Seen Peaches Growing On A 
TTITLE2=Sweet Potato Vine?
TTITLE3=Nathan Salsburg - Sketch From Life
TTITLE4=Jack Rose - Kensington Blues
TTITLE5=Michael Chapman - Memphis In Winter
TTITLE6=Marisa Anderson - Cloud Corner
TTITLE7=Steve Gunn - Old Strange
TTITLE8=John Hulbert - After The Storm
TTITLE9=Daniel Bachman - Wine And Peanuts
TTITLE10=Roy Harper - Time Is Temporary
TTITLE11=Gwenifer Raymond - Sometimes There's Blood
TTITLE12=Chuck Johnson - Ransom Street Blues
TTITLE13=Cian Nugent and The Cosmos - Hire Purchase
TTITLE14=75 Dollar Bill - I'm Not Trying To Wake Up
EXTD=
EXTT0=
EXTT1=
EXTT2=
EXTT3=
EXTT4=
EXTT5=
EXTT6=
EXTT7=
EXTT8=
EXTT9=
EXTT10=
EXTT11=
EXTT12=
EXTT13=
EXTT14=
PLAYORDER=
